<svg xmlns="http://www.w3.org/2000/svg" xmlns:xlink="http://www.w3.org/1999/xlink" xmlns:inkscape="http://www.inkscape.org/namespaces/inkscape" version="1.1" width="478" height="364" viewBox="0 0 478 364">
<defs>
<clipPath id="clip_1">
<path transform="matrix(1,0,0,-1,0,364)" d="M.06 363.382H477.185V0H.06Z"/>
</clipPath>
</defs>
<g clip-path="url(#clip_1)">
<path transform="matrix(1,0,0,-1,0,364)" d="M.06 363.382H477.185V0H.06Z" fill="#ea332b"/>
</g>
<path transform="matrix(1,0,0,-1,0,364)" d="M232.296 213.3C232.935 213.3 233.317 213.556 233.575 214.192L237.913 228.357C238.295 229.506 237.913 230.145 237.147 230.145 236.763 230.145 236.509 230.019 235.998 229.254 235.232 228.231 234.21 226.7 233.446 226.7 232.935 226.7 232.679 226.826 232.296 227.21 228.724 231.294 224.128 232.443 220.044 232.443 201.158 232.443 184.693 212.406 184.693 193.77 184.693 183.052 191.201 176.926 200.646 176.926 204.603 176.926 208.174 177.691 213.665 179.989 214.94 180.498 216.214 181.01 217.237 181.01 218.513 181.01 218.642 179.349 218.768 177.183 218.768 176.419 219.278 176.033 219.791 176.033 220.3 176.033 220.809 176.161 221.065 176.669L226.425 192.24C226.935 193.516 226.299 194.156 225.534 194.156 224.767 194.156 224.255 193.77 223.619 192.75 219.533 185.861 209.579 180.498 201.539 180.498 195.285 180.498 192.476 185.222 192.476 191.985 192.476 208.195 207.154 228.996 219.662 228.996 226.17 228.996 231.147 225.041 231.147 216.746 231.147 216.107 231.019 215.212 231.019 214.575 231.019 213.808 231.531 213.3 232.296 213.3" fill="#ffffff"/>
<path transform="matrix(1,0,0,-1,0,364)" d="M258.207 215.341C261.141 215.341 262.416 213.043 262.416 209.727 262.416 199.772 252.206 180.882 244.806 180.882 241.868 180.882 240.593 182.925 240.593 186.241 240.593 197.091 250.804 215.341 258.207 215.341ZM257.823 218.532C245.698 218.532 235.488 203.982 235.488 189.303 235.488 182.796 238.805 177.436 245.06 177.436 257.313 177.436 267.521 193.263 267.521 206.663 267.521 213.172 264.204 218.532 257.823 218.532" fill="#ffffff"/>
<path transform="matrix(1,0,0,-1,0,364)" d="M288.964 228.357C288.964 228.104 288.835 227.592 288.58 227.083 282.071 212.022 275.819 197.858 269.563 182.796 269.183 181.902 268.669 180.498 268.669 179.478 268.669 178.331 269.694 177.183 271.095 177.183 271.989 177.183 273.138 177.309 274.16 177.691 278.115 179.095 281.305 181.264 283.985 184.458 284.24 184.712 284.496 185.093 284.496 185.607 284.496 186.241 284.24 186.625 283.73 186.625 283.475 186.625 283.22 186.499 282.836 186.241 281.56 185.349 279.902 183.69 277.095 182.158 276.84 182.03 276.327 181.776 276.074 181.776 275.819 181.776 275.692 181.902 275.692 182.158 275.692 182.541 275.819 182.796 275.945 183.177L296.107 229.763C296.493 230.656 296.62 231.167 296.62 231.678 296.62 232.186 296.238 232.443 295.6 232.443 294.578 232.443 292.666 232.315 291.133 232.186 289.858 232.06 286.92 231.934 285.007 231.678 284.24 231.55 283.73 231.039 283.73 230.529 283.73 229.89 284.24 229.506 284.88 229.506 285.898 229.38 287.561 229.254 288.453 228.996 288.835 228.87 288.964 228.614 288.964 228.357" fill="#ffffff"/>
<path transform="matrix(1,0,0,-1,0,364)" d="M309.894 228.357C309.894 228.104 309.768 227.592 309.511 227.083 303.001 212.022 296.748 197.858 290.494 182.796 290.113 181.902 289.604 180.498 289.604 179.478 289.604 178.331 290.626 177.183 292.026 177.183 292.921 177.183 294.068 177.309 295.088 177.691 299.048 179.095 302.237 181.264 304.918 184.458 305.173 184.712 305.425 185.093 305.425 185.607 305.425 186.241 305.173 186.625 304.66 186.625 304.408 186.625 304.152 186.499 303.77 186.241 302.494 185.349 300.832 183.69 298.027 182.158 297.769 182.03 297.26 181.776 297.004 181.776 296.748 181.776 296.62 181.902 296.62 182.158 296.62 182.541 296.748 182.796 296.877 183.177L317.04 229.763C317.423 230.656 317.552 231.167 317.552 231.678 317.552 232.186 317.167 232.443 316.529 232.443 315.511 232.443 313.596 232.315 312.066 232.186 310.786 232.06 307.852 231.934 305.935 231.678 305.173 231.55 304.66 231.039 304.66 230.529 304.66 229.89 305.173 229.506 305.809 229.506 306.831 229.38 308.491 229.254 309.385 228.996 309.768 228.87 309.894 228.614 309.894 228.357" fill="#ffffff"/>
<path transform="matrix(1,0,0,-1,0,364)" d="M332.101 201.173C328.527 200.025 325.208 199.131 323.039 198.877 325.466 203.728 328.146 207.299 331.082 210.237 332.74 212.022 335.546 214.321 338.228 214.321 340.141 214.321 341.165 213.172 341.165 211.002 341.165 206.534 337.333 202.835 332.101 201.173ZM337.204 185.989C337.462 186.371 337.717 186.751 337.717 187.265 337.717 187.902 337.204 188.413 336.569 188.413 336.185 188.413 335.801 188.155 335.546 187.902 332.995 185.222 329.294 181.776 324.827 181.776 321.509 181.776 319.593 184.2 319.593 188.155 319.593 190.965 320.613 193.644 321.509 195.687 324.319 196.196 329.805 197.345 332.611 198.241 341.927 201.173 346.777 205.898 346.777 211.767 346.777 215.723 343.97 217.51 340.017 217.51 328.527 217.51 312.829 201.686 312.829 186.371 312.829 181.137 316.274 177.436 321.509 177.436 328.653 177.436 333.251 181.01 337.204 185.989" fill="#ffffff"/>
<path transform="matrix(1,0,0,-1,0,364)" d="M400.762 201.173C397.189 200.025 393.874 199.131 391.705 198.877 394.129 203.728 396.808 207.299 399.743 210.237 401.403 212.022 404.208 214.321 406.888 214.321 408.803 214.321 409.824 213.172 409.824 211.002 409.824 206.534 405.996 202.835 400.762 201.173ZM405.87 185.989C406.122 186.371 406.381 186.751 406.381 187.265 406.381 187.902 405.87 188.413 405.231 188.413 404.85 188.413 404.464 188.155 404.208 187.902 401.658 185.222 397.956 181.776 393.487 181.776 390.172 181.776 388.258 184.2 388.258 188.155 388.258 190.965 389.276 193.644 390.172 195.687 392.98 196.196 398.466 197.345 401.277 198.241 410.59 201.173 415.443 205.898 415.443 211.767 415.443 215.723 412.634 217.51 408.677 217.51 397.189 217.51 381.495 201.686 381.495 186.371 381.495 181.137 384.812 177.436 390.172 177.436 397.315 177.436 401.911 181.01 405.87 185.989" fill="#ffffff"/>
<path transform="matrix(1,0,0,-1,0,364)" d="M355.713 166.714C348.82 166.714 344.863 169.779 344.863 173.096 344.863 177.052 349.33 179.863 353.8 181.393 355.713 180.372 358.518 179.095 360.691 177.819 364.263 175.651 364.903 174.502 364.903 172.585 364.903 169.143 361.326 166.714 355.713 166.714ZM361.965 195.687C359.925 195.687 358.903 197.474 358.903 200.153 358.903 202.324 359.667 205.002 361.455 208.195 364.008 212.79 367.328 215.47 370.515 215.47 372.558 215.47 373.835 214.192 373.835 211.894 373.835 209.47 373.069 206.408 371.156 202.962 367.58 196.963 364.645 195.687 361.965 195.687ZM378.81 209.088C378.81 211.383 378.428 212.278 378.428 213.172 378.428 214.063 379.451 214.704 380.984 214.704 382.643 214.704 383.916 213.427 385.448 213.427 386.725 213.427 387.746 214.447 387.746 215.981 387.746 217.51 386.596 218.277 384.812 218.277 383.15 218.277 381.237 217.766 379.196 216.488 378.683 216.236 378.173 215.852 377.537 215.852 377.279 215.852 376.77 215.981 376.386 216.236 374.858 217.127 373.196 217.766 370.005 217.766 365.792 217.766 360.306 215.596 356.73 210.746 354.181 207.173 353.671 204.876 353.671 202.324 353.671 200.025 354.436 198.11 355.072 196.963 355.201 196.709 355.584 196.325 355.584 196.069 355.584 195.559 354.817 195.305 353.286 194.92 350.608 194.282 347.161 192.498 347.161 189.177 347.161 186.625 348.565 185.093 351.244 183.177 346.393 181.902 338.353 178.713 338.353 173.224 338.353 167.863 345.119 163.782 355.201 163.782 364.903 163.782 371.663 167.863 371.663 174.245 371.663 177.691 368.475 180.754 362.858 183.56 357.114 186.371 353.159 188.285 353.159 190.452 353.159 192.368 354.691 193.263 357.497 193.263 359.031 193.263 361.074 192.75 362.605 192.75 367.199 192.75 373.451 194.156 377.279 202.324 378.302 204.619 378.81 206.916 378.81 209.088" fill="#ffffff"/>
<path transform="matrix(1,0,0,-1,0,364)" d="M62.816 79.601H414.199V74.976H62.816Z" fill="#ffffff"/>
<path transform="matrix(1,0,0,-1,0,364)" d="M62.816 63.161H414.199V54.170999H62.816Z" fill="#ffffff"/>
<path transform="matrix(1,0,0,-1,0,364)" d="M349.729 262.27C349.729 267.537 353.583 268.049 356.919 268.307 357.562 268.307 357.946 268.948 357.946 269.719 357.946 270.361 357.562 270.874 356.665 270.874H330.72C329.822 270.874 329.178 270.361 329.178 269.592 329.178 268.692 329.822 268.049 330.72 268.049 335.86 267.665 339.966 266.766 339.966 261.757V253.92C339.966 251.739 339.194 250.583 337.912 249.556 333.16 246.088 328.28 245.576 324.301 245.576 308.116 245.576 300.798 259.06 300.798 272.801 300.798 291.294 312.483 301.184 325.326 301.184 337.141 301.184 344.848 296.048 349.212 287.186 349.729 286.158 350.242 285.773 351.014 285.773 351.654 285.773 352.167 286.415 352.167 287.186V301.057C352.167 301.827 351.654 302.34 351.014 302.34 350.242 302.34 349.855 301.827 349.599 301.057 349.212 299.515 348.443 298.487 347.286 298.487 346.517 298.487 345.359 299.131 344.59 299.642 339.326 302.726 334.83 305.037 325.326 305.037 309.658 305.037 290.136 296.433 290.136 273.185 290.136 249.043 308.373 241.593 324.301 241.593 338.554 241.593 347.419 248.658 349.729 250.583V262.27" fill="#ffffff"/>
<path transform="matrix(1,0,0,-1,0,364)" d="M365.526 295.405C366.551 295.405 367.838 295.917 368.222 296.946 368.35 296.687 368.479 296.303 368.479 295.917 368.479 293.352 366.424 290.909 362.956 289.497 362.443 289.24 362.059 288.855 362.059 288.212 362.059 287.572 362.699 287.186 363.47 287.314 369.121 288.342 372.202 293.48 372.202 298.36 372.202 302.726 369.766 305.037 366.297 305.037 363.985 305.037 360.903 303.882 360.903 300.029 360.903 296.946 363.213 295.405 365.526 295.405" fill="#ffffff"/>
<path transform="matrix(1,0,0,-1,0,364)" d="M413.429 289.753C414.073 289.753 414.584 290.268 414.456 291.039L412.532 304.524C412.402 305.422 412.015 305.68 411.373 305.68 410.988 305.68 410.604 305.422 410.348 304.779 409.961 303.754 409.317 302.726 408.037 302.726 405.854 302.726 403.025 305.037 396.862 305.037 388.896 305.037 378.366 300.927 378.366 289.884 378.366 278.324 387.616 274.214 395.579 271.389 404.309 268.307 410.732 266.25 410.732 257.518 410.732 248.913 404.053 245.703 397.376 245.703 390.312 245.703 382.348 249.043 379.265 259.446 379.01 260.343 378.624 260.857 377.726 260.857 376.826 260.857 376.314 260.343 376.314 259.187V244.29C376.314 243.39 376.826 242.878 377.596 242.878 378.11 242.878 378.494 243.133 378.881 243.777 379.265 244.673 380.035 246.088 381.322 246.088 383.891 246.088 388.896 241.593 398.016 241.593 406.622 241.593 419.722 244.806 419.722 260.343 419.722 266.766 417.154 275.112 401.483 279.609 390.439 282.818 386.971 286.801 386.971 292.322 386.971 297.204 390.312 301.184 397.506 301.184 402.769 301.184 408.293 298.745 412.147 290.781 412.532 290.011 412.918 289.753 413.429 289.753" fill="#ffffff"/>
<path transform="matrix(1,0,0,-1,0,364)" d="M197.666 294.378C197.666 299.258 199.079 301.697 203.96 302.34 204.86 302.467 205.373 302.853 205.373 303.624 205.373 304.267 204.86 304.652 203.96 304.652H181.356C180.455 304.652 179.943 304.267 179.943 303.624 179.943 302.853 180.455 302.467 181.356 302.34 186.236 301.697 187.649 299.258 187.649 294.378V252.253C187.649 247.372 186.236 244.933 181.356 244.29 180.455 244.162 179.943 243.777 179.943 243.006 179.943 242.363 180.455 241.977 181.356 241.977H203.96C204.86 241.977 205.373 242.363 205.373 243.006 205.373 243.777 204.86 244.162 203.96 244.29 199.079 244.933 197.666 247.372 197.666 252.253V294.378" fill="#ffffff"/>
<path transform="matrix(1,0,0,-1,0,364)" d="M276.908 293.22C277.162 299.515 278.321 301.697 283.201 302.34 284.098 302.467 284.615 302.853 284.615 303.624 284.615 304.267 284.098 304.652 283.201 304.652H263.812C263.294 304.652 262.91 304.139 262.91 303.496 262.91 302.983 263.294 302.467 263.939 302.34 268.046 301.697 270.999 300.8 271.516 293.22 272.157 284.359 272.287 259.315 272.287 259.315L231.83 304.652H215.777C214.877 304.652 214.363 304.267 214.363 303.624 214.363 302.853 214.877 302.467 215.777 302.34 218.473 301.955 222.067 300.672 222.067 296.433 222.067 283.719 222.067 267.021 221.553 253.408 221.297 247.116 220.142 244.933 215.262 244.29 214.363 244.162 213.848 243.777 213.848 243.006 213.848 242.363 214.363 241.977 215.262 241.977H234.656C235.169 241.977 235.554 242.493 235.554 243.133 235.554 243.648 235.169 244.162 234.528 244.29 230.417 244.933 227.462 245.83 226.947 253.408 226.435 262.27 226.177 294.635 226.177 294.635L273.441 241.977H276.394C276.394 241.977 276.394 279.609 276.908 293.22" fill="#ffffff"/>
<path transform="matrix(1,0,0,-1,0,364)" d="M91.712 285.515C91.839 292.709 92.996 298.745 106.995 300.672 108.408 300.927 109.179 301.57 109.179 302.853 109.179 303.882 108.408 304.652 107.251 304.652 98.521 304.267 94.667 304.267 83.88 304.267 74.632 304.267 62.816 304.652 61.016 304.652 59.476 304.652 58.577 304.009 58.577 302.853 58.577 301.827 59.348 301.057 60.761 300.927 65.77 300.156 73.476 299.001 73.989 284.489 74.117 279.994 74.247 257.773 74.247 233.631 74.247 218.09 74.117 204.477 73.862 198.185 73.346 183.669 65.641 182.514 60.631 181.745 59.22 181.617 58.45 180.845 58.45 179.818 58.45 178.663 59.348 178.02 60.889 178.02 62.688 178.02 74.501 178.407 83.749 178.407 94.537 178.407 99.931 178.407 108.666 178.02 109.821 178.02 110.591 178.79 110.591 179.818 110.591 181.102 109.821 181.745 108.408 182.002 94.409 183.929 92.225 189.963 91.585 197.156 91.327 200.239 91.069 208.071 91.069 216.292 91.069 224.512 91.2 232.476 91.327 234.144 91.454 236.07 92.483 236.713 93.511 236.713 94.409 236.713 95.307 236.328 95.95 235.813 104.684 228.493 131.525 196.513 146.809 178.02H179.43C180.713 178.02 181.226 178.663 181.226 179.69 181.226 180.845 180.455 181.745 179.43 181.745 173.266 182.387 169.412 183.545 161.708 189.708 153.744 196 109.051 249.428 109.051 249.428 112.518 253.408 133.066 274.341 144.882 285.002 158.752 297.589 164.147 299.258 170.054 300.672 170.954 300.927 171.595 301.441 171.595 302.598 171.595 303.754 170.824 304.652 169.028 304.652 165.946 304.652 156.698 304.267 150.789 304.267 140.516 304.267 132.039 304.652 130.242 304.652 128.7 304.652 127.544 303.882 127.544 302.598 127.544 301.441 128.57 300.672 129.984 300.413 132.039 300.029 133.836 299.771 135.894 299.001 137.946 298.23 139.102 297.331 139.102 295.147 139.102 293.093 138.204 291.294 137.049 289.497 134.222 285.13 131.012 281.149 125.876 275.754 113.674 263.17 98.648 248.273 93.638 244.162 93.126 243.777 92.74 243.648 92.355 243.648 91.585 243.648 91.327 244.547 91.327 245.445 91.327 246.473 91.454 269.848 91.712 285.515" fill="#ffffff"/>
<path transform="matrix(1,0,0,-1,0,364)" d="M62.943 153.188C62.43 153.188 62.046 152.803 62.046 152.164 62.046 151.648 62.557 151.134 63.2 151.134 67.44 150.879 68.98 148.051 68.98 143.944V108.24C68.98 104.132 67.44 101.431 63.2 101.05 62.557 101.05 62.046 100.537 62.046 100.018 62.046 99.377 62.43 98.993 62.943 98.993H108.28L111.104 114.149C111.363 115.176 110.848 115.818 110.078 115.818 109.436 115.818 108.923 115.432 108.666 114.791 104.684 103.745 98.39 102.463 89.014 102.463 79.51 102.463 77.457 104.003 77.457 108.368V145.358C77.457 149.721 81.181 150.879 83.88 151.008 84.651 151.134 85.035 151.52 85.035 152.035 85.035 152.675 84.519 153.188 83.749 153.188H62.943" fill="#ffffff"/>
<path transform="matrix(1,0,0,-1,0,364)" d="M124.204 126.604C124.204 139.961 130.627 150.107 142.057 150.107 152.202 150.107 160.165 140.474 160.165 126.604 160.165 109.525 152.973 102.077 142.057 102.077 131.397 102.077 124.204 112.347 124.204 126.604ZM142.057 98.606C157.982 98.606 169.283 109.653 169.283 126.604 169.283 141.501 158.24 153.573 142.057 153.573 126.388 153.573 115.088 141.245 115.088 126.604 115.088 110.68 125.746 98.606 142.057 98.606" fill="#ffffff"/>
<path transform="matrix(1,0,0,-1,0,364)" d="M226.82 98.993 227.077 143.944C227.077 148.051 228.617 150.493 232.857 151.134 233.627 151.262 234.011 151.648 234.011 152.164 234.011 152.803 233.627 153.188 233.112 153.188H216.16C215.518 153.188 215.133 152.803 215.133 152.164 215.133 151.648 215.518 151.262 216.29 151.134 220.527 150.366 222.583 149.082 222.71 143.944L223.353 113.119 189.191 153.188H174.678C174.036 153.188 173.651 152.803 173.651 152.164 173.651 151.52 174.036 151.134 174.807 151.008 178.402 150.493 180.07 149.336 180.07 145.869L179.815 108.24C179.815 104.132 178.275 101.691 174.036 101.05 173.266 100.921 172.88 100.537 172.88 100.018 172.88 99.377 173.136 98.993 173.779 98.993H190.731C191.376 98.993 191.76 99.377 191.76 100.018 191.76 100.537 191.376 100.921 190.603 101.05 187.649 101.561 184.31 102.331 184.181 108.24L183.796 146.127 223.867 98.993H226.82" fill="#ffffff"/>
<path transform="matrix(1,0,0,-1,0,364)" d="M253.919 144.458C253.919 149.336 256.487 149.721 263.294 149.721 274.726 149.721 286.284 144.202 286.284 126.862 286.284 109.781 276.524 102.463 263.812 102.463H260.981C257.386 102.463 253.919 103.487 253.919 110.037V144.458ZM239.278 153.188C238.765 153.188 238.38 152.803 238.38 152.164 238.38 151.52 238.892 151.134 239.537 151.134 243.773 150.751 245.313 148.051 245.313 143.944V108.24C245.313 104.132 243.773 101.431 239.537 101.05 238.765 100.921 238.38 100.537 238.38 100.018 238.38 99.377 238.765 98.993 239.278 98.993H265.35C276.651 98.993 295.403 104.773 295.403 126.604 295.403 146 280.504 153.188 265.094 153.188H239.278" fill="#ffffff"/>
<path transform="matrix(1,0,0,-1,0,364)" d="M311.711 126.604C311.711 139.961 318.136 150.107 329.563 150.107 339.71 150.107 347.672 140.474 347.672 126.604 347.672 109.525 340.482 102.077 329.563 102.077 318.904 102.077 311.711 112.347 311.711 126.604ZM329.563 98.606C345.49 98.606 356.792 109.653 356.792 126.604 356.792 141.501 345.747 153.573 329.563 153.573 313.897 153.573 302.594 141.245 302.594 126.604 302.594 110.68 313.254 98.606 329.563 98.606" fill="#ffffff"/>
<path transform="matrix(1,0,0,-1,0,364)" d="M414.199 98.993 414.456 143.944C414.456 148.051 416 150.493 420.235 151.134 421.009 151.262 421.393 151.648 421.393 152.164 421.393 152.803 421.009 153.188 420.493 153.188H403.539C402.898 153.188 402.514 152.803 402.514 152.164 402.514 151.648 402.898 151.262 403.669 151.134 407.909 150.366 409.961 149.082 410.088 143.944L410.732 113.119 376.57 153.188H362.059C361.413 153.188 361.03 152.803 361.03 152.164 361.03 151.52 361.413 151.134 362.186 151.008 365.781 150.493 367.452 149.336 367.452 145.869L367.194 108.24C367.194 104.132 365.654 101.691 361.413 101.05 360.643 100.921 360.259 100.537 360.259 100.018 360.259 99.377 360.516 98.993 361.156 98.993H378.11C378.754 98.993 379.137 99.377 379.137 100.018 379.137 100.537 378.754 100.921 377.983 101.05 375.026 101.561 371.69 102.331 371.56 108.24L371.174 146.127 411.245 98.993H414.199" fill="#ffffff"/>
</svg>
