<?xml version="1.0" encoding="UTF-8" standalone="no"?>
<svg
   width="276.742"
   height="40"
   viewBox="0 0 276.742 40"
   version="1.1"
   id="svg2"
   sodipodi:docname="Viridien Logo 2024.svg"
   inkscape:version="1.4 (e7c3feb1, 2024-10-09)"
   xmlns:inkscape="http://www.inkscape.org/namespaces/inkscape"
   xmlns:sodipodi="http://sodipodi.sourceforge.net/DTD/sodipodi-0.dtd"
   xmlns="http://www.w3.org/2000/svg"
   xmlns:svg="http://www.w3.org/2000/svg">
  <sodipodi:namedview
     id="namedview2"
     pagecolor="#505050"
     bordercolor="#eeeeee"
     borderopacity="1"
     inkscape:showpageshadow="0"
     inkscape:pageopacity="0"
     inkscape:pagecheckerboard="0"
     inkscape:deskcolor="#505050"
     inkscape:current-layer="svg2" />
  <defs
     id="defs1">
    <style
       id="style1">.a{fill:#39ff14;}.b{fill:#fff;stroke:rgba(0,0,0,0);stroke-miterlimit:10;}</style>
  </defs>
  <path
     class="a"
     d="M133.594,274.467v26.066a5.025,5.025,0,0,1-5.037,5h-21.2a5.025,5.025,0,0,1-5.036-5V279.47a5.025,5.025,0,0,1,5.036-5h26.24Zm4.5-4.466H107.354a9.5,9.5,0,0,0-9.532,9.469v21.063A9.5,9.5,0,0,0,107.354,310h21.2a9.5,9.5,0,0,0,9.532-9.469V270Z"
     transform="translate(-97.822 -270.001)"
     id="path1" />
  <path
     class="b"
     d="M158.866,23.589a7.3,7.3,0,0,1-7.29-7.286V7.329a7.3,7.3,0,0,1,7.29-7.286h23.577a1.243,1.243,0,0,1,1.246,1.238V3.575H158.866a3.75,3.75,0,0,0-3.735,3.755V9.864h21.286a1.337,1.337,0,0,1,1.366,1.3v.922a1.337,1.337,0,0,1-1.366,1.3H155.131V16.3a3.75,3.75,0,0,0,3.735,3.755h23.488a1.333,1.333,0,0,1,1.336,1.327v2.2Zm-55.58-.009V21.4a1.3,1.3,0,0,1,1.306-1.3h20.736a7,7,0,0,0,7.01-6.965V10.517a7,7,0,0,0-7.01-6.964H103.285V1.311A1.239,1.239,0,0,1,104.527.076h20.8a10.487,10.487,0,0,1,10.51,10.441V13.14a10.487,10.487,0,0,1-10.51,10.44ZM16.25,21.208,0,.072H.89A6.875,6.875,0,0,1,6.3,2.562l.077.1h0c.129.151.25.313.366.476h0L19.03,19.105a3.858,3.858,0,0,0,2.879.994,3.9,3.9,0,0,0,2.882-1L37.712,2.559A7.328,7.328,0,0,1,43.2.072h.884L27.525,21.208a7.092,7.092,0,0,1-5.616,2.373A7.147,7.147,0,0,1,16.25,21.208Zm78.332,2.365V1.11A1.151,1.151,0,0,1,95.817.069H96.9A1.15,1.15,0,0,1,98.133,1.11V22.533A1.15,1.15,0,0,1,96.9,23.574Zm-7.055,0a1.329,1.329,0,0,1-1.191-.731l-3.792-7.535a3.238,3.238,0,0,0-2.888-1.734H60v8.911a1.093,1.093,0,0,1-1.1,1.089h-2.37V10.085h26.4a2.846,2.846,0,0,0,2.4-1.3,3.386,3.386,0,0,0,.2-3.53,3.311,3.311,0,0,0-2.9-1.683H56.534V1.317A1.238,1.238,0,0,1,57.774.084h24.87c4.3,0,6.767,2.451,6.767,6.722a6.728,6.728,0,0,1-4.173,6.242c.095.153.181.309.266.462l.136.243,4.944,9.82Zm-40.624,0V1.11A1.15,1.15,0,0,1,48.138.069h1.082A1.151,1.151,0,0,1,50.455,1.11V22.533a1.151,1.151,0,0,1-1.235,1.041Zm167.088-1.625L195.017,4.106a2.156,2.156,0,0,0-1.457-.631,1.167,1.167,0,0,0-.577.14,1.09,1.09,0,0,0-.758,1.055V22.281a1.273,1.273,0,0,1-1.276,1.267h-2.217V4.669a4.447,4.447,0,0,1,.793-2.546A4.522,4.522,0,0,1,191.614.416a5.6,5.6,0,0,1,1.946-.368,5.4,5.4,0,0,1,3.875,1.6l19.018,17.842a1.937,1.937,0,0,0,1.408.584,1.732,1.732,0,0,0,.611-.114,1.085,1.085,0,0,0,.724-1.081V1.3a1.255,1.255,0,0,1,1.259-1.25h2.234V18.882a4.466,4.466,0,0,1-.793,2.59,4.544,4.544,0,0,1-2.091,1.707,5.434,5.434,0,0,1-5.815-1.23ZM141.949,23.5V1.042A1.151,1.151,0,0,1,143.184,0h1.082A1.151,1.151,0,0,1,145.5,1.042V22.464a1.151,1.151,0,0,1-1.235,1.041Z"
     transform="translate(53.552 8.178)"
     id="path2"
     style="fill:#5000bb;fill-opacity:1" />
</svg>
